<svg id="visual" viewBox="0 0 960 540" width="960" height="540" xmlns="http://www.w3.org/2000/svg" xmlns:xlink="http://www.w3.org/1999/xlink" version="1.1"><rect x="0" y="0" width="960" height="540" fill="#000"></rect><path d="M0 478L42 478L42 504L83 504L83 511L125 511L125 486L167 486L167 505L209 505L209 500L250 500L250 493L292 493L292 492L334 492L334 507L376 507L376 500L417 500L417 510L459 510L459 491L501 491L501 485L543 485L543 482L584 482L584 515L626 515L626 493L668 493L668 478L710 478L710 506L751 506L751 476L793 476L793 507L835 507L835 510L877 510L877 496L918 496L918 508L960 508L960 513L960 0L960 0L918 0L918 0L877 0L877 0L835 0L835 0L793 0L793 0L751 0L751 0L710 0L710 0L668 0L668 0L626 0L626 0L584 0L584 0L543 0L543 0L501 0L501 0L459 0L459 0L417 0L417 0L376 0L376 0L334 0L334 0L292 0L292 0L250 0L250 0L209 0L209 0L167 0L167 0L125 0L125 0L83 0L83 0L42 0L42 0L0 0Z" fill="#14001e"></path><path d="M0 444L42 444L42 448L83 448L83 461L125 461L125 432L167 432L167 471L209 471L209 450L250 450L250 442L292 442L292 432L334 432L334 441L376 441L376 433L417 433L417 461L459 461L459 434L501 434L501 440L543 440L543 443L584 443L584 437L626 437L626 473L668 473L668 453L710 453L710 441L751 441L751 437L793 437L793 465L835 465L835 465L877 465L877 436L918 436L918 467L960 467L960 480L960 0L960 0L918 0L918 0L877 0L877 0L835 0L835 0L793 0L793 0L751 0L751 0L710 0L710 0L668 0L668 0L626 0L626 0L584 0L584 0L543 0L543 0L501 0L501 0L459 0L459 0L417 0L417 0L376 0L376 0L334 0L334 0L292 0L292 0L250 0L250 0L209 0L209 0L167 0L167 0L125 0L125 0L83 0L83 0L42 0L42 0L0 0Z" fill="#1d0a2f"></path><path d="M0 423L42 423L42 430L83 430L83 415L125 415L125 411L167 411L167 399L209 399L209 428L250 428L250 419L292 419L292 413L334 413L334 431L376 431L376 424L417 424L417 397L459 397L459 423L501 423L501 419L543 419L543 419L584 419L584 408L626 408L626 409L668 409L668 422L710 422L710 422L751 422L751 437L793 437L793 432L835 432L835 423L877 423L877 429L918 429L918 424L960 424L960 413L960 0L960 0L918 0L918 0L877 0L877 0L835 0L835 0L793 0L793 0L751 0L751 0L710 0L710 0L668 0L668 0L626 0L626 0L584 0L584 0L543 0L543 0L501 0L501 0L459 0L459 0L417 0L417 0L376 0L376 0L334 0L334 0L292 0L292 0L250 0L250 0L209 0L209 0L167 0L167 0L125 0L125 0L83 0L83 0L42 0L42 0L0 0Z" fill="#280f42"></path><path d="M0 374L42 374L42 371L83 371L83 364L125 364L125 388L167 388L167 395L209 395L209 356L250 356L250 364L292 364L292 367L334 367L334 395L376 395L376 353L417 353L417 380L459 380L459 389L501 389L501 380L543 380L543 365L584 365L584 389L626 389L626 384L668 384L668 394L710 394L710 372L751 372L751 359L793 359L793 383L835 383L835 352L877 352L877 384L918 384L918 388L960 388L960 372L960 0L960 0L918 0L918 0L877 0L877 0L835 0L835 0L793 0L793 0L751 0L751 0L710 0L710 0L668 0L668 0L626 0L626 0L584 0L584 0L543 0L543 0L501 0L501 0L459 0L459 0L417 0L417 0L376 0L376 0L334 0L334 0L292 0L292 0L250 0L250 0L209 0L209 0L167 0L167 0L125 0L125 0L83 0L83 0L42 0L42 0L0 0Z" fill="#331255"></path><path d="M0 338L42 338L42 344L83 344L83 350L125 350L125 315L167 315L167 336L209 336L209 314L250 314L250 336L292 336L292 346L334 346L334 326L376 326L376 340L417 340L417 347L459 347L459 355L501 355L501 320L543 320L543 324L584 324L584 355L626 355L626 316L668 316L668 325L710 325L710 342L751 342L751 350L793 350L793 333L835 333L835 354L877 354L877 338L918 338L918 330L960 330L960 341L960 0L960 0L918 0L918 0L877 0L877 0L835 0L835 0L793 0L793 0L751 0L751 0L710 0L710 0L668 0L668 0L626 0L626 0L584 0L584 0L543 0L543 0L501 0L501 0L459 0L459 0L417 0L417 0L376 0L376 0L334 0L334 0L292 0L292 0L250 0L250 0L209 0L209 0L167 0L167 0L125 0L125 0L83 0L83 0L42 0L42 0L0 0Z" fill="#401469"></path><path d="M0 288L42 288L42 294L83 294L83 280L125 280L125 292L167 292L167 299L209 299L209 295L250 295L250 314L292 314L292 297L334 297L334 311L376 311L376 315L417 315L417 275L459 275L459 294L501 294L501 272L543 272L543 302L584 302L584 310L626 310L626 290L668 290L668 291L710 291L710 307L751 307L751 274L793 274L793 312L835 312L835 304L877 304L877 287L918 287L918 275L960 275L960 275L960 0L960 0L918 0L918 0L877 0L877 0L835 0L835 0L793 0L793 0L751 0L751 0L710 0L710 0L668 0L668 0L626 0L626 0L584 0L584 0L543 0L543 0L501 0L501 0L459 0L459 0L417 0L417 0L376 0L376 0L334 0L334 0L292 0L292 0L250 0L250 0L209 0L209 0L167 0L167 0L125 0L125 0L83 0L83 0L42 0L42 0L0 0Z" fill="#4d167e"></path><path d="M0 246L42 246L42 263L83 263L83 253L125 253L125 240L167 240L167 224L209 224L209 234L250 234L250 261L292 261L292 260L334 260L334 260L376 260L376 261L417 261L417 227L459 227L459 228L501 228L501 252L543 252L543 271L584 271L584 254L626 254L626 262L668 262L668 262L710 262L710 232L751 232L751 232L793 232L793 238L835 238L835 236L877 236L877 269L918 269L918 233L960 233L960 245L960 0L960 0L918 0L918 0L877 0L877 0L835 0L835 0L793 0L793 0L751 0L751 0L710 0L710 0L668 0L668 0L626 0L626 0L584 0L584 0L543 0L543 0L501 0L501 0L459 0L459 0L417 0L417 0L376 0L376 0L334 0L334 0L292 0L292 0L250 0L250 0L209 0L209 0L167 0L167 0L125 0L125 0L83 0L83 0L42 0L42 0L0 0Z" fill="#5b1792"></path><path d="M0 216L42 216L42 212L83 212L83 229L125 229L125 228L167 228L167 208L209 208L209 188L250 188L250 195L292 195L292 198L334 198L334 224L376 224L376 193L417 193L417 198L459 198L459 208L501 208L501 203L543 203L543 193L584 193L584 222L626 222L626 201L668 201L668 214L710 214L710 219L751 219L751 185L793 185L793 184L835 184L835 207L877 207L877 215L918 215L918 209L960 209L960 188L960 0L960 0L918 0L918 0L877 0L877 0L835 0L835 0L793 0L793 0L751 0L751 0L710 0L710 0L668 0L668 0L626 0L626 0L584 0L584 0L543 0L543 0L501 0L501 0L459 0L459 0L417 0L417 0L376 0L376 0L334 0L334 0L292 0L292 0L250 0L250 0L209 0L209 0L167 0L167 0L125 0L125 0L83 0L83 0L42 0L42 0L0 0Z" fill="#6918a8"></path><path d="M0 147L42 147L42 183L83 183L83 170L125 170L125 142L167 142L167 154L209 154L209 166L250 166L250 176L292 176L292 146L334 146L334 169L376 169L376 185L417 185L417 187L459 187L459 145L501 145L501 180L543 180L543 189L584 189L584 150L626 150L626 179L668 179L668 168L710 168L710 183L751 183L751 144L793 144L793 179L835 179L835 175L877 175L877 182L918 182L918 143L960 143L960 141L960 0L960 0L918 0L918 0L877 0L877 0L835 0L835 0L793 0L793 0L751 0L751 0L710 0L710 0L668 0L668 0L626 0L626 0L584 0L584 0L543 0L543 0L501 0L501 0L459 0L459 0L417 0L417 0L376 0L376 0L334 0L334 0L292 0L292 0L250 0L250 0L209 0L209 0L167 0L167 0L125 0L125 0L83 0L83 0L42 0L42 0L0 0Z" fill="#7916bd"></path><path d="M0 136L42 136L42 121L83 121L83 115L125 115L125 118L167 118L167 117L209 117L209 140L250 140L250 142L292 142L292 110L334 110L334 138L376 138L376 117L417 117L417 132L459 132L459 104L501 104L501 138L543 138L543 114L584 114L584 99L626 99L626 137L668 137L668 137L710 137L710 146L751 146L751 109L793 109L793 125L835 125L835 130L877 130L877 119L918 119L918 145L960 145L960 129L960 0L960 0L918 0L918 0L877 0L877 0L835 0L835 0L793 0L793 0L751 0L751 0L710 0L710 0L668 0L668 0L626 0L626 0L584 0L584 0L543 0L543 0L501 0L501 0L459 0L459 0L417 0L417 0L376 0L376 0L334 0L334 0L292 0L292 0L250 0L250 0L209 0L209 0L167 0L167 0L125 0L125 0L83 0L83 0L42 0L42 0L0 0Z" fill="#8813d3"></path><path d="M0 77L42 77L42 80L83 80L83 98L125 98L125 78L167 78L167 81L209 81L209 72L250 72L250 104L292 104L292 72L334 72L334 91L376 91L376 57L417 57L417 61L459 61L459 106L501 106L501 57L543 57L543 72L584 72L584 103L626 103L626 89L668 89L668 72L710 72L710 93L751 93L751 58L793 58L793 95L835 95L835 62L877 62L877 101L918 101L918 101L960 101L960 76L960 0L960 0L918 0L918 0L877 0L877 0L835 0L835 0L793 0L793 0L751 0L751 0L710 0L710 0L668 0L668 0L626 0L626 0L584 0L584 0L543 0L543 0L501 0L501 0L459 0L459 0L417 0L417 0L376 0L376 0L334 0L334 0L292 0L292 0L250 0L250 0L209 0L209 0L167 0L167 0L125 0L125 0L83 0L83 0L42 0L42 0L0 0Z" fill="#990de9"></path><path d="M0 44L42 44L42 24L83 24L83 39L125 39L125 56L167 56L167 55L209 55L209 34L250 34L250 50L292 50L292 34L334 34L334 53L376 53L376 45L417 45L417 34L459 34L459 56L501 56L501 31L543 31L543 26L584 26L584 28L626 28L626 64L668 64L668 36L710 36L710 23L751 23L751 37L793 37L793 54L835 54L835 55L877 55L877 44L918 44L918 63L960 63L960 64L960 0L960 0L918 0L918 0L877 0L877 0L835 0L835 0L793 0L793 0L751 0L751 0L710 0L710 0L668 0L668 0L626 0L626 0L584 0L584 0L543 0L543 0L501 0L501 0L459 0L459 0L417 0L417 0L376 0L376 0L334 0L334 0L292 0L292 0L250 0L250 0L209 0L209 0L167 0L167 0L125 0L125 0L83 0L83 0L42 0L42 0L0 0Z" fill="#aa00ff"></path></svg>