<svg id="visual" viewBox="0 0 900 600" width="900" height="600" xmlns="http://www.w3.org/2000/svg" xmlns:xlink="http://www.w3.org/1999/xlink" version="1.1"><rect x="0" y="0" width="900" height="600" fill="#000"></rect><path d="M0 547L6.5 549.3C13 551.7 26 556.3 39 555.3C52 554.3 65 547.7 78 544C91 540.3 104 539.7 117.2 543.3C130.3 547 143.7 555 156.8 557.2C170 559.3 183 555.7 196 555.8C209 556 222 560 235 558.2C248 556.3 261 548.7 274 545.3C287 542 300 543 313 543.8C326 544.7 339 545.3 352 547C365 548.7 378 551.3 391 552.7C404 554 417 554 430.2 553C443.3 552 456.7 550 469.8 550C483 550 496 552 509 553C522 554 535 554 548 555.7C561 557.3 574 560.7 587 559.8C600 559 613 554 626 553.5C639 553 652 557 665 558.5C678 560 691 559 704 557.7C717 556.3 730 554.7 743.2 553.5C756.3 552.3 769.7 551.7 782.8 553.3C796 555 809 559 822 557.3C835 555.7 848 548.3 861 548.3C874 548.3 887 555.7 893.5 559.3L900 563L900 0L893.5 0C887 0 874 0 861 0C848 0 835 0 822 0C809 0 796 0 782.8 0C769.7 0 756.3 0 743.2 0C730 0 717 0 704 0C691 0 678 0 665 0C652 0 639 0 626 0C613 0 600 0 587 0C574 0 561 0 548 0C535 0 522 0 509 0C496 0 483 0 469.8 0C456.7 0 443.3 0 430.2 0C417 0 404 0 391 0C378 0 365 0 352 0C339 0 326 0 313 0C300 0 287 0 274 0C261 0 248 0 235 0C222 0 209 0 196 0C183 0 170 0 156.8 0C143.7 0 130.3 0 117.2 0C104 0 91 0 78 0C65 0 52 0 39 0C26 0 13 0 6.5 0L0 0Z" fill="#1b0028"></path><path d="M0 518L6.5 517.8C13 517.7 26 517.3 39 515.7C52 514 65 511 78 509C91 507 104 506 117.2 503.5C130.3 501 143.7 497 156.8 498.7C170 500.3 183 507.7 196 509.7C209 511.7 222 508.3 235 506.7C248 505 261 505 274 507.2C287 509.3 300 513.7 313 513.2C326 512.7 339 507.3 352 504.7C365 502 378 502 391 503.2C404 504.3 417 506.7 430.2 509.2C443.3 511.7 456.7 514.3 469.8 514.7C483 515 496 513 509 511.3C522 509.7 535 508.3 548 507.5C561 506.7 574 506.3 587 507.7C600 509 613 512 626 514.3C639 516.7 652 518.3 665 515.3C678 512.3 691 504.7 704 501.2C717 497.7 730 498.3 743.2 500.3C756.3 502.3 769.7 505.7 782.8 506C796 506.3 809 503.7 822 503.2C835 502.7 848 504.3 861 507.2C874 510 887 514 893.5 516L900 518L900 0L893.5 0C887 0 874 0 861 0C848 0 835 0 822 0C809 0 796 0 782.8 0C769.7 0 756.3 0 743.2 0C730 0 717 0 704 0C691 0 678 0 665 0C652 0 639 0 626 0C613 0 600 0 587 0C574 0 561 0 548 0C535 0 522 0 509 0C496 0 483 0 469.8 0C456.7 0 443.3 0 430.2 0C417 0 404 0 391 0C378 0 365 0 352 0C339 0 326 0 313 0C300 0 287 0 274 0C261 0 248 0 235 0C222 0 209 0 196 0C183 0 170 0 156.8 0C143.7 0 130.3 0 117.2 0C104 0 91 0 78 0C65 0 52 0 39 0C26 0 13 0 6.5 0L0 0Z" fill="#240739"></path><path d="M0 471L6.5 467.3C13 463.7 26 456.3 39 455.3C52 454.3 65 459.7 78 462.2C91 464.7 104 464.3 117.2 465.2C130.3 466 143.7 468 156.8 465.7C170 463.3 183 456.7 196 456.8C209 457 222 464 235 463.7C248 463.3 261 455.7 274 453.2C287 450.7 300 453.3 313 457.3C326 461.3 339 466.7 352 468.2C365 469.7 378 467.3 391 466.3C404 465.3 417 465.7 430.2 464.8C443.3 464 456.7 462 469.8 459C483 456 496 452 509 452.3C522 452.7 535 457.3 548 458.5C561 459.7 574 457.3 587 457C600 456.7 613 458.3 626 457.3C639 456.3 652 452.7 665 453.8C678 455 691 461 704 461.2C717 461.3 730 455.7 743.2 455.3C756.3 455 769.7 460 782.8 462.8C796 465.7 809 466.3 822 464.2C835 462 848 457 861 455C874 453 887 454 893.5 454.5L900 455L900 0L893.5 0C887 0 874 0 861 0C848 0 835 0 822 0C809 0 796 0 782.8 0C769.7 0 756.3 0 743.2 0C730 0 717 0 704 0C691 0 678 0 665 0C652 0 639 0 626 0C613 0 600 0 587 0C574 0 561 0 548 0C535 0 522 0 509 0C496 0 483 0 469.8 0C456.7 0 443.3 0 430.2 0C417 0 404 0 391 0C378 0 365 0 352 0C339 0 326 0 313 0C300 0 287 0 274 0C261 0 248 0 235 0C222 0 209 0 196 0C183 0 170 0 156.8 0C143.7 0 130.3 0 117.2 0C104 0 91 0 78 0C65 0 52 0 39 0C26 0 13 0 6.5 0L0 0Z" fill="#2f094a"></path><path d="M0 407L6.5 408C13 409 26 411 39 414C52 417 65 421 78 420.8C91 420.7 104 416.3 117.2 412.7C130.3 409 143.7 406 156.8 407C170 408 183 413 196 417C209 421 222 424 235 423.3C248 422.7 261 418.3 274 415.7C287 413 300 412 313 413C326 414 339 417 352 417.8C365 418.7 378 417.3 391 414.8C404 412.3 417 408.7 430.2 409C443.3 409.3 456.7 413.7 469.8 416.2C483 418.7 496 419.3 509 417.2C522 415 535 410 548 410C561 410 574 415 587 416.7C600 418.3 613 416.7 626 414.8C639 413 652 411 665 409.2C678 407.3 691 405.7 704 406.8C717 408 730 412 743.2 414.3C756.3 416.7 769.7 417.3 782.8 416.8C796 416.3 809 414.7 822 414C835 413.3 848 413.7 861 413.5C874 413.3 887 412.7 893.5 412.3L900 412L900 0L893.5 0C887 0 874 0 861 0C848 0 835 0 822 0C809 0 796 0 782.8 0C769.7 0 756.3 0 743.2 0C730 0 717 0 704 0C691 0 678 0 665 0C652 0 639 0 626 0C613 0 600 0 587 0C574 0 561 0 548 0C535 0 522 0 509 0C496 0 483 0 469.8 0C456.7 0 443.3 0 430.2 0C417 0 404 0 391 0C378 0 365 0 352 0C339 0 326 0 313 0C300 0 287 0 274 0C261 0 248 0 235 0C222 0 209 0 196 0C183 0 170 0 156.8 0C143.7 0 130.3 0 117.2 0C104 0 91 0 78 0C65 0 52 0 39 0C26 0 13 0 6.5 0L0 0Z" fill="#3b0b5c"></path><path d="M0 378L6.5 374.3C13 370.7 26 363.3 39 361.3C52 359.3 65 362.7 78 363.2C91 363.7 104 361.3 117.2 361.7C130.3 362 143.7 365 156.8 366C170 367 183 366 196 367.7C209 369.3 222 373.7 235 373C248 372.3 261 366.7 274 366.7C287 366.7 300 372.3 313 373.2C326 374 339 370 352 370.3C365 370.7 378 375.3 391 375.5C404 375.7 417 371.3 430.2 370.2C443.3 369 456.7 371 469.8 370.2C483 369.3 496 365.7 509 362.8C522 360 535 358 548 356.7C561 355.3 574 354.7 587 357.2C600 359.7 613 365.3 626 366.8C639 368.3 652 365.7 665 363.2C678 360.7 691 358.3 704 357.7C717 357 730 358 743.2 359C756.3 360 769.7 361 782.8 363.5C796 366 809 370 822 369.7C835 369.3 848 364.7 861 365.8C874 367 887 374 893.5 377.5L900 381L900 0L893.5 0C887 0 874 0 861 0C848 0 835 0 822 0C809 0 796 0 782.8 0C769.7 0 756.3 0 743.2 0C730 0 717 0 704 0C691 0 678 0 665 0C652 0 639 0 626 0C613 0 600 0 587 0C574 0 561 0 548 0C535 0 522 0 509 0C496 0 483 0 469.8 0C456.7 0 443.3 0 430.2 0C417 0 404 0 391 0C378 0 365 0 352 0C339 0 326 0 313 0C300 0 287 0 274 0C261 0 248 0 235 0C222 0 209 0 196 0C183 0 170 0 156.8 0C143.7 0 130.3 0 117.2 0C104 0 91 0 78 0C65 0 52 0 39 0C26 0 13 0 6.5 0L0 0Z" fill="#480d6f"></path><path d="M0 309L6.5 313.5C13 318 26 327 39 329.3C52 331.7 65 327.3 78 326C91 324.7 104 326.3 117.2 325C130.3 323.7 143.7 319.3 156.8 316.7C170 314 183 313 196 315C209 317 222 322 235 322.3C248 322.7 261 318.3 274 317.3C287 316.3 300 318.7 313 319.7C326 320.7 339 320.3 352 319.7C365 319 378 318 391 316.3C404 314.7 417 312.3 430.2 312.5C443.3 312.7 456.7 315.3 469.8 317.3C483 319.3 496 320.7 509 322C522 323.3 535 324.7 548 323.8C561 323 574 320 587 321C600 322 613 327 626 329.2C639 331.3 652 330.7 665 327.5C678 324.3 691 318.7 704 317.8C717 317 730 321 743.2 322.7C756.3 324.3 769.7 323.7 782.8 323.3C796 323 809 323 822 323.7C835 324.3 848 325.7 861 323.3C874 321 887 315 893.5 312L900 309L900 0L893.5 0C887 0 874 0 861 0C848 0 835 0 822 0C809 0 796 0 782.8 0C769.7 0 756.3 0 743.2 0C730 0 717 0 704 0C691 0 678 0 665 0C652 0 639 0 626 0C613 0 600 0 587 0C574 0 561 0 548 0C535 0 522 0 509 0C496 0 483 0 469.8 0C456.7 0 443.3 0 430.2 0C417 0 404 0 391 0C378 0 365 0 352 0C339 0 326 0 313 0C300 0 287 0 274 0C261 0 248 0 235 0C222 0 209 0 196 0C183 0 170 0 156.8 0C143.7 0 130.3 0 117.2 0C104 0 91 0 78 0C65 0 52 0 39 0C26 0 13 0 6.5 0L0 0Z" fill="#540e82"></path><path d="M0 289L6.5 288C13 287 26 285 39 283.8C52 282.7 65 282.3 78 282.7C91 283 104 284 117.2 281.5C130.3 279 143.7 273 156.8 273.8C170 274.7 183 282.3 196 282C209 281.7 222 273.3 235 269.8C248 266.3 261 267.7 274 270.2C287 272.7 300 276.3 313 279.3C326 282.3 339 284.7 352 284.7C365 284.7 378 282.3 391 281.2C404 280 417 280 430.2 281.3C443.3 282.7 456.7 285.3 469.8 286C483 286.7 496 285.3 509 283.3C522 281.3 535 278.7 548 276.7C561 274.7 574 273.3 587 274.5C600 275.7 613 279.3 626 278.2C639 277 652 271 665 269.5C678 268 691 271 704 271.3C717 271.7 730 269.3 743.2 270.5C756.3 271.7 769.7 276.3 782.8 278.5C796 280.7 809 280.3 822 280C835 279.7 848 279.3 861 277.3C874 275.3 887 271.7 893.5 269.8L900 268L900 0L893.5 0C887 0 874 0 861 0C848 0 835 0 822 0C809 0 796 0 782.8 0C769.7 0 756.3 0 743.2 0C730 0 717 0 704 0C691 0 678 0 665 0C652 0 639 0 626 0C613 0 600 0 587 0C574 0 561 0 548 0C535 0 522 0 509 0C496 0 483 0 469.8 0C456.7 0 443.3 0 430.2 0C417 0 404 0 391 0C378 0 365 0 352 0C339 0 326 0 313 0C300 0 287 0 274 0C261 0 248 0 235 0C222 0 209 0 196 0C183 0 170 0 156.8 0C143.7 0 130.3 0 117.2 0C104 0 91 0 78 0C65 0 52 0 39 0C26 0 13 0 6.5 0L0 0Z" fill="#620e96"></path><path d="M0 221L6.5 224.7C13 228.3 26 235.7 39 238.3C52 241 65 239 78 236.5C91 234 104 231 117.2 228.8C130.3 226.7 143.7 225.3 156.8 226.7C170 228 183 232 196 232.2C209 232.3 222 228.7 235 225.5C248 222.3 261 219.7 274 218.8C287 218 300 219 313 220.3C326 221.7 339 223.3 352 223C365 222.7 378 220.3 391 221.5C404 222.7 417 227.3 430.2 230.5C443.3 233.7 456.7 235.3 469.8 237C483 238.7 496 240.3 509 237C522 233.7 535 225.3 548 223.7C561 222 574 227 587 229.3C600 231.7 613 231.3 626 229.8C639 228.3 652 225.7 665 224.3C678 223 691 223 704 224.2C717 225.3 730 227.7 743.2 229.7C756.3 231.7 769.7 233.3 782.8 232.7C796 232 809 229 822 228.7C835 228.3 848 230.7 861 231.2C874 231.7 887 230.3 893.5 229.7L900 229L900 0L893.5 0C887 0 874 0 861 0C848 0 835 0 822 0C809 0 796 0 782.8 0C769.7 0 756.3 0 743.2 0C730 0 717 0 704 0C691 0 678 0 665 0C652 0 639 0 626 0C613 0 600 0 587 0C574 0 561 0 548 0C535 0 522 0 509 0C496 0 483 0 469.8 0C456.7 0 443.3 0 430.2 0C417 0 404 0 391 0C378 0 365 0 352 0C339 0 326 0 313 0C300 0 287 0 274 0C261 0 248 0 235 0C222 0 209 0 196 0C183 0 170 0 156.8 0C143.7 0 130.3 0 117.2 0C104 0 91 0 78 0C65 0 52 0 39 0C26 0 13 0 6.5 0L0 0Z" fill="#6f0eaa"></path><path d="M0 185L6.5 184.3C13 183.7 26 182.3 39 184C52 185.7 65 190.3 78 191.2C91 192 104 189 117.2 189.3C130.3 189.7 143.7 193.3 156.8 192.8C170 192.3 183 187.7 196 184.7C209 181.7 222 180.3 235 178.2C248 176 261 173 274 173.7C287 174.3 300 178.7 313 179.2C326 179.7 339 176.3 352 174.2C365 172 378 171 391 174.7C404 178.3 417 186.7 430.2 187.8C443.3 189 456.7 183 469.8 182.5C483 182 496 187 509 187C522 187 535 182 548 179.7C561 177.3 574 177.7 587 177C600 176.3 613 174.7 626 176.8C639 179 652 185 665 185.2C678 185.3 691 179.7 704 178.2C717 176.7 730 179.3 743.2 181.3C756.3 183.3 769.7 184.7 782.8 184C796 183.3 809 180.7 822 181.7C835 182.7 848 187.3 861 189.2C874 191 887 190 893.5 189.5L900 189L900 0L893.5 0C887 0 874 0 861 0C848 0 835 0 822 0C809 0 796 0 782.8 0C769.7 0 756.3 0 743.2 0C730 0 717 0 704 0C691 0 678 0 665 0C652 0 639 0 626 0C613 0 600 0 587 0C574 0 561 0 548 0C535 0 522 0 509 0C496 0 483 0 469.8 0C456.7 0 443.3 0 430.2 0C417 0 404 0 391 0C378 0 365 0 352 0C339 0 326 0 313 0C300 0 287 0 274 0C261 0 248 0 235 0C222 0 209 0 196 0C183 0 170 0 156.8 0C143.7 0 130.3 0 117.2 0C104 0 91 0 78 0C65 0 52 0 39 0C26 0 13 0 6.5 0L0 0Z" fill="#7d0dbf"></path><path d="M0 137L6.5 134.8C13 132.7 26 128.3 39 126.7C52 125 65 126 78 128.8C91 131.7 104 136.3 117.2 136.2C130.3 136 143.7 131 156.8 132.7C170 134.3 183 142.7 196 143.3C209 144 222 137 235 136C248 135 261 140 274 141.3C287 142.7 300 140.3 313 139.3C326 138.3 339 138.7 352 137.8C365 137 378 135 391 132.5C404 130 417 127 430.2 129.2C443.3 131.3 456.7 138.7 469.8 142.7C483 146.7 496 147.3 509 146.3C522 145.3 535 142.7 548 142.3C561 142 574 144 587 143.8C600 143.7 613 141.3 626 138.2C639 135 652 131 665 130.2C678 129.3 691 131.7 704 132.2C717 132.7 730 131.3 743.2 132C756.3 132.7 769.7 135.3 782.8 134.7C796 134 809 130 822 128C835 126 848 126 861 129.5C874 133 887 140 893.5 143.5L900 147L900 0L893.5 0C887 0 874 0 861 0C848 0 835 0 822 0C809 0 796 0 782.8 0C769.7 0 756.3 0 743.2 0C730 0 717 0 704 0C691 0 678 0 665 0C652 0 639 0 626 0C613 0 600 0 587 0C574 0 561 0 548 0C535 0 522 0 509 0C496 0 483 0 469.8 0C456.7 0 443.3 0 430.2 0C417 0 404 0 391 0C378 0 365 0 352 0C339 0 326 0 313 0C300 0 287 0 274 0C261 0 248 0 235 0C222 0 209 0 196 0C183 0 170 0 156.8 0C143.7 0 130.3 0 117.2 0C104 0 91 0 78 0C65 0 52 0 39 0C26 0 13 0 6.5 0L0 0Z" fill="#8c0ad4"></path><path d="M0 89L6.5 88.7C13 88.3 26 87.7 39 88.3C52 89 65 91 78 90.3C91 89.7 104 86.3 117.2 85.7C130.3 85 143.7 87 156.8 88.7C170 90.3 183 91.7 196 91.2C209 90.7 222 88.3 235 86.7C248 85 261 84 274 86.7C287 89.3 300 95.7 313 95.5C326 95.3 339 88.7 352 86.3C365 84 378 86 391 88.8C404 91.7 417 95.3 430.2 97.2C443.3 99 456.7 99 469.8 99.2C483 99.3 496 99.7 509 99.8C522 100 535 100 548 98C561 96 574 92 587 92.3C600 92.7 613 97.3 626 99.2C639 101 652 100 665 97.7C678 95.3 691 91.7 704 89.2C717 86.7 730 85.3 743.2 84.8C756.3 84.3 769.7 84.7 782.8 84.3C796 84 809 83 822 83.3C835 83.7 848 85.3 861 87.7C874 90 887 93 893.5 94.5L900 96L900 0L893.5 0C887 0 874 0 861 0C848 0 835 0 822 0C809 0 796 0 782.8 0C769.7 0 756.3 0 743.2 0C730 0 717 0 704 0C691 0 678 0 665 0C652 0 639 0 626 0C613 0 600 0 587 0C574 0 561 0 548 0C535 0 522 0 509 0C496 0 483 0 469.8 0C456.7 0 443.3 0 430.2 0C417 0 404 0 391 0C378 0 365 0 352 0C339 0 326 0 313 0C300 0 287 0 274 0C261 0 248 0 235 0C222 0 209 0 196 0C183 0 170 0 156.8 0C143.7 0 130.3 0 117.2 0C104 0 91 0 78 0C65 0 52 0 39 0C26 0 13 0 6.5 0L0 0Z" fill="#9b06e9"></path><path d="M0 43L6.5 44.2C13 45.3 26 47.7 39 50.2C52 52.7 65 55.3 78 54.2C91 53 104 48 117.2 46.7C130.3 45.3 143.7 47.7 156.8 46.5C170 45.3 183 40.7 196 41.7C209 42.7 222 49.3 235 53.2C248 57 261 58 274 58C287 58 300 57 313 56.3C326 55.7 339 55.3 352 51.5C365 47.7 378 40.3 391 39.2C404 38 417 43 430.2 45.7C443.3 48.3 456.7 48.7 469.8 50C483 51.3 496 53.7 509 53.7C522 53.7 535 51.3 548 51.3C561 51.3 574 53.7 587 55C600 56.3 613 56.7 626 52.8C639 49 652 41 665 37C678 33 691 33 704 32.8C717 32.7 730 32.3 743.2 36C756.3 39.7 769.7 47.3 782.8 48.5C796 49.7 809 44.3 822 41.7C835 39 848 39 861 39.8C874 40.7 887 42.3 893.5 43.2L900 44L900 0L893.5 0C887 0 874 0 861 0C848 0 835 0 822 0C809 0 796 0 782.8 0C769.7 0 756.3 0 743.2 0C730 0 717 0 704 0C691 0 678 0 665 0C652 0 639 0 626 0C613 0 600 0 587 0C574 0 561 0 548 0C535 0 522 0 509 0C496 0 483 0 469.8 0C456.7 0 443.3 0 430.2 0C417 0 404 0 391 0C378 0 365 0 352 0C339 0 326 0 313 0C300 0 287 0 274 0C261 0 248 0 235 0C222 0 209 0 196 0C183 0 170 0 156.8 0C143.7 0 130.3 0 117.2 0C104 0 91 0 78 0C65 0 52 0 39 0C26 0 13 0 6.5 0L0 0Z" fill="#aa00ff"></path></svg>