<svg id="visual" viewBox="0 0 1000 200" width="1000" height="200" xmlns="http://www.w3.org/2000/svg" xmlns:xlink="http://www.w3.org/1999/xlink" version="1.1"><path d="M0 156L7.2 157C14.3 158 28.7 160 43.2 161.3C57.7 162.7 72.3 163.3 86.8 163C101.3 162.7 115.7 161.3 130.2 163.7C144.7 166 159.3 172 173.8 174.2C188.3 176.3 202.7 174.7 217.2 174.3C231.7 174 246.3 175 260.8 175C275.3 175 289.7 174 304.2 171.7C318.7 169.3 333.3 165.7 347.8 163.2C362.3 160.7 376.7 159.3 391.2 159C405.7 158.7 420.3 159.3 434.8 159.2C449.3 159 463.7 158 478.2 158.2C492.7 158.3 507.3 159.7 521.8 159.2C536.3 158.7 550.7 156.3 565.2 155.7C579.7 155 594.3 156 608.8 156.7C623.3 157.3 637.7 157.7 652.2 157.7C666.7 157.7 681.3 157.3 695.8 158.2C710.3 159 724.7 161 739.2 160.2C753.7 159.3 768.3 155.7 782.8 157.8C797.3 160 811.7 168 826.2 170.2C840.7 172.3 855.3 168.7 869.8 167.7C884.3 166.7 898.7 168.3 913.2 170.2C927.7 172 942.3 174 956.8 172C971.3 170 985.7 164 992.8 161L1000 158L1000 0L992.8 0C985.7 0 971.3 0 956.8 0C942.3 0 927.7 0 913.2 0C898.7 0 884.3 0 869.8 0C855.3 0 840.7 0 826.2 0C811.7 0 797.3 0 782.8 0C768.3 0 753.7 0 739.2 0C724.7 0 710.3 0 695.8 0C681.3 0 666.7 0 652.2 0C637.7 0 623.3 0 608.8 0C594.3 0 579.7 0 565.2 0C550.7 0 536.3 0 521.8 0C507.3 0 492.7 0 478.2 0C463.7 0 449.3 0 434.8 0C420.3 0 405.7 0 391.2 0C376.7 0 362.3 0 347.8 0C333.3 0 318.7 0 304.2 0C289.7 0 275.3 0 260.8 0C246.3 0 231.7 0 217.2 0C202.7 0 188.3 0 173.8 0C159.3 0 144.7 0 130.2 0C115.7 0 101.3 0 86.8 0C72.3 0 57.7 0 43.2 0C28.7 0 14.3 0 7.2 0L0 0Z" fill="#715df2"></path><path d="M0 124L7.2 126C14.3 128 28.7 132 43.2 135.3C57.7 138.7 72.3 141.3 86.8 139C101.3 136.7 115.7 129.3 130.2 129.3C144.7 129.3 159.3 136.7 173.8 137C188.3 137.3 202.7 130.7 217.2 128C231.7 125.3 246.3 126.7 260.8 128.5C275.3 130.3 289.7 132.7 304.2 135C318.7 137.3 333.3 139.7 347.8 139C362.3 138.3 376.7 134.7 391.2 134C405.7 133.3 420.3 135.7 434.8 134.2C449.3 132.7 463.7 127.3 478.2 124.8C492.7 122.3 507.3 122.7 521.8 124.3C536.3 126 550.7 129 565.2 129.8C579.7 130.7 594.3 129.3 608.8 129.3C623.3 129.3 637.7 130.7 652.2 130.5C666.7 130.3 681.3 128.7 695.8 128.5C710.3 128.3 724.7 129.7 739.2 131.5C753.7 133.3 768.3 135.7 782.8 136.7C797.3 137.7 811.7 137.3 826.2 136.5C840.7 135.7 855.3 134.3 869.8 133C884.3 131.7 898.7 130.3 913.2 131.3C927.7 132.3 942.3 135.7 956.8 134.5C971.3 133.3 985.7 127.7 992.8 124.8L1000 122L1000 0L992.8 0C985.7 0 971.3 0 956.8 0C942.3 0 927.7 0 913.2 0C898.7 0 884.3 0 869.8 0C855.3 0 840.7 0 826.2 0C811.7 0 797.3 0 782.8 0C768.3 0 753.7 0 739.2 0C724.7 0 710.3 0 695.8 0C681.3 0 666.7 0 652.2 0C637.7 0 623.3 0 608.8 0C594.3 0 579.7 0 565.2 0C550.7 0 536.3 0 521.8 0C507.3 0 492.7 0 478.2 0C463.7 0 449.3 0 434.8 0C420.3 0 405.7 0 391.2 0C376.7 0 362.3 0 347.8 0C333.3 0 318.7 0 304.2 0C289.7 0 275.3 0 260.8 0C246.3 0 231.7 0 217.2 0C202.7 0 188.3 0 173.8 0C159.3 0 144.7 0 130.2 0C115.7 0 101.3 0 86.8 0C72.3 0 57.7 0 43.2 0C28.7 0 14.3 0 7.2 0L0 0Z" fill="#5046bd"></path><path d="M0 106L7.2 105C14.3 104 28.7 102 43.2 101.5C57.7 101 72.3 102 86.8 101C101.3 100 115.7 97 130.2 94.3C144.7 91.7 159.3 89.3 173.8 89.2C188.3 89 202.7 91 217.2 91.2C231.7 91.3 246.3 89.7 260.8 90.5C275.3 91.3 289.7 94.7 304.2 94.5C318.7 94.3 333.3 90.7 347.8 91.5C362.3 92.3 376.7 97.7 391.2 97.8C405.7 98 420.3 93 434.8 91.8C449.3 90.7 463.7 93.3 478.2 97.2C492.7 101 507.3 106 521.8 105.2C536.3 104.3 550.7 97.7 565.2 95C579.7 92.3 594.3 93.7 608.8 94.2C623.3 94.7 637.7 94.3 652.2 96.7C666.7 99 681.3 104 695.8 103.5C710.3 103 724.7 97 739.2 93.3C753.7 89.7 768.3 88.3 782.8 87.7C797.3 87 811.7 87 826.2 89.8C840.7 92.7 855.3 98.3 869.8 100.8C884.3 103.3 898.7 102.7 913.2 102.3C927.7 102 942.3 102 956.8 101.8C971.3 101.7 985.7 101.3 992.8 101.2L1000 101L1000 0L992.8 0C985.7 0 971.3 0 956.8 0C942.3 0 927.7 0 913.2 0C898.7 0 884.3 0 869.8 0C855.3 0 840.7 0 826.2 0C811.7 0 797.3 0 782.8 0C768.3 0 753.7 0 739.2 0C724.7 0 710.3 0 695.8 0C681.3 0 666.7 0 652.2 0C637.7 0 623.3 0 608.8 0C594.3 0 579.7 0 565.2 0C550.7 0 536.3 0 521.8 0C507.3 0 492.7 0 478.2 0C463.7 0 449.3 0 434.8 0C420.3 0 405.7 0 391.2 0C376.7 0 362.3 0 347.8 0C333.3 0 318.7 0 304.2 0C289.7 0 275.3 0 260.8 0C246.3 0 231.7 0 217.2 0C202.7 0 188.3 0 173.8 0C159.3 0 144.7 0 130.2 0C115.7 0 101.3 0 86.8 0C72.3 0 57.7 0 43.2 0C28.7 0 14.3 0 7.2 0L0 0Z" fill="#32308b"></path><path d="M0 74L7.2 74.8C14.3 75.7 28.7 77.3 43.2 75C57.7 72.7 72.3 66.3 86.8 65.8C101.3 65.3 115.7 70.7 130.2 73.2C144.7 75.7 159.3 75.3 173.8 73C188.3 70.7 202.7 66.3 217.2 64.7C231.7 63 246.3 64 260.8 65.7C275.3 67.3 289.7 69.7 304.2 70.2C318.7 70.7 333.3 69.3 347.8 70C362.3 70.7 376.7 73.3 391.2 75.2C405.7 77 420.3 78 434.8 77.5C449.3 77 463.7 75 478.2 73.2C492.7 71.3 507.3 69.7 521.8 69.8C536.3 70 550.7 72 565.2 73.7C579.7 75.3 594.3 76.7 608.8 73.7C623.3 70.7 637.7 63.3 652.2 59.8C666.7 56.3 681.3 56.7 695.8 59.5C710.3 62.3 724.7 67.7 739.2 70.7C753.7 73.7 768.3 74.3 782.8 74.5C797.3 74.7 811.7 74.3 826.2 70.8C840.7 67.3 855.3 60.7 869.8 60.3C884.3 60 898.7 66 913.2 66.2C927.7 66.3 942.3 60.7 956.8 58.8C971.3 57 985.7 59 992.8 60L1000 61L1000 0L992.8 0C985.7 0 971.3 0 956.8 0C942.3 0 927.7 0 913.2 0C898.7 0 884.3 0 869.8 0C855.3 0 840.7 0 826.2 0C811.7 0 797.3 0 782.8 0C768.3 0 753.7 0 739.2 0C724.7 0 710.3 0 695.8 0C681.3 0 666.7 0 652.2 0C637.7 0 623.3 0 608.8 0C594.3 0 579.7 0 565.2 0C550.7 0 536.3 0 521.8 0C507.3 0 492.7 0 478.2 0C463.7 0 449.3 0 434.8 0C420.3 0 405.7 0 391.2 0C376.7 0 362.3 0 347.8 0C333.3 0 318.7 0 304.2 0C289.7 0 275.3 0 260.8 0C246.3 0 231.7 0 217.2 0C202.7 0 188.3 0 173.8 0C159.3 0 144.7 0 130.2 0C115.7 0 101.3 0 86.8 0C72.3 0 57.7 0 43.2 0C28.7 0 14.3 0 7.2 0L0 0Z" fill="#171b5c"></path><path d="M0 25L7.2 24.3C14.3 23.7 28.7 22.3 43.2 21.7C57.7 21 72.3 21 86.8 24.7C101.3 28.3 115.7 35.7 130.2 37C144.7 38.3 159.3 33.7 173.8 31.7C188.3 29.7 202.7 30.3 217.2 29C231.7 27.7 246.3 24.3 260.8 25C275.3 25.7 289.7 30.3 304.2 30.5C318.7 30.7 333.3 26.3 347.8 27.8C362.3 29.3 376.7 36.7 391.2 37.3C405.7 38 420.3 32 434.8 31C449.3 30 463.7 34 478.2 36.3C492.7 38.7 507.3 39.3 521.8 40.2C536.3 41 550.7 42 565.2 42.8C579.7 43.7 594.3 44.3 608.8 44C623.3 43.7 637.7 42.3 652.2 38.8C666.7 35.3 681.3 29.7 695.8 29.5C710.3 29.3 724.7 34.7 739.2 37.2C753.7 39.7 768.3 39.3 782.8 39C797.3 38.7 811.7 38.3 826.2 37.5C840.7 36.7 855.3 35.3 869.8 32.3C884.3 29.3 898.7 24.7 913.2 24C927.7 23.3 942.3 26.7 956.8 26.7C971.3 26.7 985.7 23.3 992.8 21.7L1000 20L1000 0L992.8 0C985.7 0 971.3 0 956.8 0C942.3 0 927.7 0 913.2 0C898.7 0 884.3 0 869.8 0C855.3 0 840.7 0 826.2 0C811.7 0 797.3 0 782.8 0C768.3 0 753.7 0 739.2 0C724.7 0 710.3 0 695.8 0C681.3 0 666.7 0 652.2 0C637.7 0 623.3 0 608.8 0C594.3 0 579.7 0 565.2 0C550.7 0 536.3 0 521.8 0C507.3 0 492.7 0 478.2 0C463.7 0 449.3 0 434.8 0C420.3 0 405.7 0 391.2 0C376.7 0 362.3 0 347.8 0C333.3 0 318.7 0 304.2 0C289.7 0 275.3 0 260.8 0C246.3 0 231.7 0 217.2 0C202.7 0 188.3 0 173.8 0C159.3 0 144.7 0 130.2 0C115.7 0 101.3 0 86.8 0C72.3 0 57.7 0 43.2 0C28.7 0 14.3 0 7.2 0L0 0Z" fill="#060030"></path></svg>