<svg id="visual" viewBox="0 0 900 900" width="900" height="900" xmlns="http://www.w3.org/2000/svg" xmlns:xlink="http://www.w3.org/1999/xlink" version="1.1"><path d="M728 900L753.5 825C779 750 830 600 839 450C848 300 815 150 798.5 75L782 0L900 0L900 75C900 150 900 300 900 450C900 600 900 750 900 825L900 900Z" fill="#000000"></path><path d="M683 900L701 825C719 750 755 600 771.5 450C788 300 785 150 783.5 75L782 0L783 0L799.5 75C816 150 849 300 840 450C831 600 780 750 754.5 825L729 900Z" fill="#0b0b0b"></path><path d="M683 900L686 825C689 750 695 600 702.5 450C710 300 719 150 723.5 75L728 0L783 0L784.5 75C786 150 789 300 772.5 450C756 600 720 750 702 825L684 900Z" fill="#141414"></path><path d="M521 900L524 825C527 750 533 600 534.5 450C536 300 533 150 531.5 75L530 0L729 0L724.5 75C720 150 711 300 703.5 450C696 600 690 750 687 825L684 900Z" fill="#1a1a1a"></path><path d="M521 900L509 825C497 750 473 600 474.5 450C476 300 503 150 516.5 75L530 0L531 0L532.5 75C534 150 537 300 535.5 450C534 600 528 750 525 825L522 900Z" fill="#202020"></path><path d="M494 900L479 825C464 750 434 600 426.5 450C419 300 434 150 441.5 75L449 0L531 0L517.5 75C504 150 477 300 475.5 450C474 600 498 750 510 825L522 900Z" fill="#222222"></path><path d="M413 900L390.5 825C368 750 323 600 299 450C275 300 272 150 270.5 75L269 0L450 0L442.5 75C435 150 420 300 427.5 450C435 600 465 750 480 825L495 900Z" fill="#222222"></path><path d="M269 900L255.5 825C242 750 215 600 198.5 450C182 300 176 150 173 75L170 0L270 0L271.5 75C273 150 276 300 300 450C324 600 369 750 391.5 825L414 900Z" fill="#202020"></path><path d="M116 900L114.5 825C113 750 110 600 117.5 450C125 300 143 150 152 75L161 0L171 0L174 75C177 150 183 300 199.5 450C216 600 243 750 256.5 825L270 900Z" fill="#1a1a1a"></path><path d="M71 900L75.5 825C80 750 89 600 95 450C101 300 104 150 105.5 75L107 0L162 0L153 75C144 150 126 300 118.5 450C111 600 114 750 115.5 825L117 900Z" fill="#141414"></path><path d="M62 900L60.5 825C59 750 56 600 57.5 450C59 300 65 150 68 75L71 0L108 0L106.5 75C105 150 102 300 96 450C90 600 81 750 76.5 825L72 900Z" fill="#0b0b0b"></path><path d="M0 900L0 825C0 750 0 600 0 450C0 300 0 150 0 75L0 0L72 0L69 75C66 150 60 300 58.5 450C57 600 60 750 61.5 825L63 900Z" fill="#000000"></path></svg>