<svg id="visual" viewBox="0 0 900 600" width="900" height="600" xmlns="http://www.w3.org/2000/svg" xmlns:xlink="http://www.w3.org/1999/xlink" version="1.1"><path d="M0 55L50 52C100 49 200 43 300 42C400 41 500 45 600 43C700 41 800 33 850 29L900 25L900 0L850 0C800 0 700 0 600 0C500 0 400 0 300 0C200 0 100 0 50 0L0 0Z" fill="#aa00ff"></path><path d="M0 103L50 108C100 113 200 123 300 135C400 147 500 161 600 159C700 157 800 139 850 130L900 121L900 23L850 27C800 31 700 39 600 41C500 43 400 39 300 40C200 41 100 47 50 50L0 53Z" fill="#9701ee"></path><path d="M0 133L50 138C100 143 200 153 300 166C400 179 500 195 600 197C700 199 800 187 850 181L900 175L900 119L850 128C800 137 700 155 600 157C500 159 400 145 300 133C200 121 100 111 50 106L0 101Z" fill="#8402dd"></path><path d="M0 307L50 296C100 285 200 263 300 256C400 249 500 257 600 268C700 279 800 293 850 300L900 307L900 173L850 179C800 185 700 197 600 195C500 193 400 177 300 164C200 151 100 141 50 136L0 131Z" fill="#7201cc"></path><path d="M0 343L50 334C100 325 200 307 300 302C400 297 500 305 600 316C700 327 800 341 850 348L900 355L900 305L850 298C800 291 700 277 600 266C500 255 400 247 300 254C200 261 100 283 50 294L0 305Z" fill="#6100bb"></path><path d="M0 409L50 410C100 411 200 413 300 423C400 433 500 451 600 448C700 445 800 421 850 409L900 397L900 353L850 346C800 339 700 325 600 314C500 303 400 295 300 300C200 305 100 323 50 332L0 341Z" fill="#4a00a6"></path><path d="M0 457L50 458C100 459 200 461 300 467C400 473 500 483 600 479C700 475 800 457 850 448L900 439L900 395L850 407C800 419 700 443 600 446C500 449 400 431 300 421C200 411 100 409 50 408L0 407Z" fill="#310092"></path><path d="M0 547L50 549C100 551 200 555 300 552C400 549 500 539 600 534C700 529 800 529 850 529L900 529L900 437L850 446C800 455 700 473 600 477C500 481 400 471 300 465C200 459 100 457 50 456L0 455Z" fill="#0e007e"></path><path d="M0 601L50 601C100 601 200 601 300 601C400 601 500 601 600 601C700 601 800 601 850 601L900 601L900 527L850 527C800 527 700 527 600 532C500 537 400 547 300 550C200 553 100 549 50 547L0 545Z" fill="#000000"></path></svg>