<svg id="visual" viewBox="0 0 900 600" width="900" height="600" xmlns="http://www.w3.org/2000/svg" xmlns:xlink="http://www.w3.org/1999/xlink" version="1.1"><rect x="0" y="0" width="900" height="600" fill="#000000"></rect><g transform="translate(476.9271623591047 326.23069087343606)"><path d="M121.7 -176.2C151.4 -146 164.6 -101.9 174.4 -59.5C184.2 -17.2 190.5 23.4 184.1 65C177.7 106.6 158.5 149.1 125.7 163.5C92.9 177.8 46.4 163.9 2.3 160.8C-41.9 157.7 -83.9 165.4 -111.1 149.3C-138.4 133.1 -151 93.1 -177.6 48.8C-204.2 4.5 -244.7 -44.1 -240.2 -84.2C-235.7 -124.4 -186 -156 -138.5 -180.4C-90.9 -204.8 -45.5 -221.9 0.3 -222.3C46 -222.7 92.1 -206.4 121.7 -176.2" fill="#AA00FF"></path></g></svg>