<svg id="visual" viewBox="0 0 2600 100" width="2600" height="100" xmlns="http://www.w3.org/2000/svg" xmlns:xlink="http://www.w3.org/1999/xlink" version="1.1"><path d="M0 6L18.8 5C37.7 4 75.3 2 113 4.7C150.7 7.3 188.3 14.7 226 18.3C263.7 22 301.3 22 339 20.5C376.7 19 414.3 16 452 15.7C489.7 15.3 527.3 17.7 565 22C602.7 26.3 640.3 32.7 678 29.8C715.7 27 753.3 15 791 14C828.7 13 866.3 23 904 24.5C941.7 26 979.3 19 1017 19C1054.7 19 1092.3 26 1130 29.5C1167.7 33 1205.3 33 1243.2 30C1281 27 1319 21 1356.8 20.5C1394.7 20 1432.3 25 1470 24.3C1507.7 23.7 1545.3 17.3 1583 17.3C1620.7 17.3 1658.3 23.7 1696 24C1733.7 24.3 1771.3 18.7 1809 15.2C1846.7 11.7 1884.3 10.3 1922 8.5C1959.7 6.7 1997.3 4.3 2035 7.2C2072.7 10 2110.3 18 2148 21.2C2185.7 24.3 2223.3 22.7 2261 21.3C2298.7 20 2336.3 19 2374 20.5C2411.7 22 2449.3 26 2487 28.2C2524.7 30.3 2562.3 30.7 2581.2 30.8L2600 31L2600 101L2581.2 101C2562.3 101 2524.7 101 2487 101C2449.3 101 2411.7 101 2374 101C2336.3 101 2298.7 101 2261 101C2223.3 101 2185.7 101 2148 101C2110.3 101 2072.7 101 2035 101C1997.3 101 1959.7 101 1922 101C1884.3 101 1846.7 101 1809 101C1771.3 101 1733.7 101 1696 101C1658.3 101 1620.7 101 1583 101C1545.3 101 1507.7 101 1470 101C1432.3 101 1394.7 101 1356.8 101C1319 101 1281 101 1243.2 101C1205.3 101 1167.7 101 1130 101C1092.3 101 1054.7 101 1017 101C979.3 101 941.7 101 904 101C866.3 101 828.7 101 791 101C753.3 101 715.7 101 678 101C640.3 101 602.7 101 565 101C527.3 101 489.7 101 452 101C414.3 101 376.7 101 339 101C301.3 101 263.7 101 226 101C188.3 101 150.7 101 113 101C75.3 101 37.7 101 18.8 101L0 101Z" fill="#7e00ba"></path><path d="M0 33L18.8 36.7C37.7 40.3 75.3 47.7 113 46.3C150.7 45 188.3 35 226 34.3C263.7 33.7 301.3 42.3 339 42C376.7 41.7 414.3 32.3 452 33C489.7 33.7 527.3 44.3 565 48.5C602.7 52.7 640.3 50.3 678 46.8C715.7 43.3 753.3 38.7 791 39.7C828.7 40.7 866.3 47.3 904 49.8C941.7 52.3 979.3 50.7 1017 45.8C1054.7 41 1092.3 33 1130 33.3C1167.7 33.7 1205.3 42.3 1243.2 46.7C1281 51 1319 51 1356.8 51.7C1394.7 52.3 1432.3 53.7 1470 49.7C1507.7 45.7 1545.3 36.3 1583 30.5C1620.7 24.7 1658.3 22.3 1696 21.8C1733.7 21.3 1771.3 22.7 1809 28.5C1846.7 34.3 1884.3 44.7 1922 46.8C1959.7 49 1997.3 43 2035 42.8C2072.7 42.7 2110.3 48.3 2148 49.7C2185.7 51 2223.3 48 2261 44.7C2298.7 41.3 2336.3 37.7 2374 38.8C2411.7 40 2449.3 46 2487 46.3C2524.7 46.7 2562.3 41.3 2581.2 38.7L2600 36L2600 101L2581.2 101C2562.3 101 2524.7 101 2487 101C2449.3 101 2411.7 101 2374 101C2336.3 101 2298.7 101 2261 101C2223.3 101 2185.7 101 2148 101C2110.3 101 2072.7 101 2035 101C1997.3 101 1959.7 101 1922 101C1884.3 101 1846.7 101 1809 101C1771.3 101 1733.7 101 1696 101C1658.3 101 1620.7 101 1583 101C1545.3 101 1507.7 101 1470 101C1432.3 101 1394.7 101 1356.8 101C1319 101 1281 101 1243.2 101C1205.3 101 1167.7 101 1130 101C1092.3 101 1054.7 101 1017 101C979.3 101 941.7 101 904 101C866.3 101 828.7 101 791 101C753.3 101 715.7 101 678 101C640.3 101 602.7 101 565 101C527.3 101 489.7 101 452 101C414.3 101 376.7 101 339 101C301.3 101 263.7 101 226 101C188.3 101 150.7 101 113 101C75.3 101 37.7 101 18.8 101L0 101Z" fill="#9b00e7"></path><path d="M0 66L18.8 62.3C37.7 58.7 75.3 51.3 113 48.2C150.7 45 188.3 46 226 51.3C263.7 56.7 301.3 66.3 339 71.5C376.7 76.7 414.3 77.3 452 73C489.7 68.7 527.3 59.3 565 58.5C602.7 57.7 640.3 65.3 678 63.5C715.7 61.7 753.3 50.3 791 50C828.7 49.7 866.3 60.3 904 64.3C941.7 68.3 979.3 65.7 1017 61.5C1054.7 57.3 1092.3 51.7 1130 49.7C1167.7 47.7 1205.3 49.3 1243.2 49.7C1281 50 1319 49 1356.8 52.2C1394.7 55.3 1432.3 62.7 1470 63.2C1507.7 63.7 1545.3 57.3 1583 57.2C1620.7 57 1658.3 63 1696 63.2C1733.7 63.3 1771.3 57.7 1809 56.8C1846.7 56 1884.3 60 1922 63.2C1959.7 66.3 1997.3 68.7 2035 68.3C2072.7 68 2110.3 65 2148 61C2185.7 57 2223.3 52 2261 52.3C2298.7 52.7 2336.3 58.3 2374 58.7C2411.7 59 2449.3 54 2487 51.2C2524.7 48.3 2562.3 47.7 2581.2 47.3L2600 47L2600 101L2581.2 101C2562.3 101 2524.7 101 2487 101C2449.3 101 2411.7 101 2374 101C2336.3 101 2298.7 101 2261 101C2223.3 101 2185.7 101 2148 101C2110.3 101 2072.7 101 2035 101C1997.3 101 1959.7 101 1922 101C1884.3 101 1846.7 101 1809 101C1771.3 101 1733.7 101 1696 101C1658.3 101 1620.7 101 1583 101C1545.3 101 1507.7 101 1470 101C1432.3 101 1394.7 101 1356.8 101C1319 101 1281 101 1243.2 101C1205.3 101 1167.7 101 1130 101C1092.3 101 1054.7 101 1017 101C979.3 101 941.7 101 904 101C866.3 101 828.7 101 791 101C753.3 101 715.7 101 678 101C640.3 101 602.7 101 565 101C527.3 101 489.7 101 452 101C414.3 101 376.7 101 339 101C301.3 101 263.7 101 226 101C188.3 101 150.7 101 113 101C75.3 101 37.7 101 18.8 101L0 101Z" fill="#b63aff"></path><path d="M0 75L18.8 77.3C37.7 79.7 75.3 84.3 113 83.3C150.7 82.3 188.3 75.7 226 76.7C263.7 77.7 301.3 86.3 339 91.2C376.7 96 414.3 97 452 96.5C489.7 96 527.3 94 565 92.2C602.7 90.3 640.3 88.7 678 89.3C715.7 90 753.3 93 791 93.7C828.7 94.3 866.3 92.7 904 92.3C941.7 92 979.3 93 1017 90C1054.7 87 1092.3 80 1130 76.8C1167.7 73.7 1205.3 74.3 1243.2 77.3C1281 80.3 1319 85.7 1356.8 83.2C1394.7 80.7 1432.3 70.3 1470 68.5C1507.7 66.7 1545.3 73.3 1583 79C1620.7 84.7 1658.3 89.3 1696 87.7C1733.7 86 1771.3 78 1809 78.7C1846.7 79.3 1884.3 88.7 1922 93.3C1959.7 98 1997.3 98 2035 94.5C2072.7 91 2110.3 84 2148 82.7C2185.7 81.3 2223.3 85.7 2261 84.8C2298.7 84 2336.3 78 2374 73.5C2411.7 69 2449.3 66 2487 69.3C2524.7 72.7 2562.3 82.3 2581.2 87.2L2600 92L2600 101L2581.2 101C2562.3 101 2524.7 101 2487 101C2449.3 101 2411.7 101 2374 101C2336.3 101 2298.7 101 2261 101C2223.3 101 2185.7 101 2148 101C2110.3 101 2072.7 101 2035 101C1997.3 101 1959.7 101 1922 101C1884.3 101 1846.7 101 1809 101C1771.3 101 1733.7 101 1696 101C1658.3 101 1620.7 101 1583 101C1545.3 101 1507.7 101 1470 101C1432.3 101 1394.7 101 1356.8 101C1319 101 1281 101 1243.2 101C1205.3 101 1167.7 101 1130 101C1092.3 101 1054.7 101 1017 101C979.3 101 941.7 101 904 101C866.3 101 828.7 101 791 101C753.3 101 715.7 101 678 101C640.3 101 602.7 101 565 101C527.3 101 489.7 101 452 101C414.3 101 376.7 101 339 101C301.3 101 263.7 101 226 101C188.3 101 150.7 101 113 101C75.3 101 37.7 101 18.8 101L0 101Z" fill="#ca6fff"></path></svg>