<svg id="visual" viewBox="0 0 900 600" width="900" height="600" xmlns="http://www.w3.org/2000/svg" xmlns:xlink="http://www.w3.org/1999/xlink" version="1.1"><g stroke-width="1" stroke-linejoin="bevel"><path d="M461 312L580 428L587 284Z" fill="#45166b" stroke="#45166b"></path><path d="M461 312L433 458L580 428Z" fill="#45166b" stroke="#45166b"></path><path d="M587 284L579 155L461 312Z" fill="#970ee5" stroke="#970ee5"></path><path d="M589 600L745 435L580 428Z" fill="#541882" stroke="#541882"></path><path d="M580 428L745 435L587 284Z" fill="#541882" stroke="#541882"></path><path d="M587 284L766 170L579 155Z" fill="#64199a" stroke="#64199a"></path><path d="M579 155L443 147L461 312Z" fill="#aa00ff" stroke="#aa00ff"></path><path d="M461 312L287 304L433 458Z" fill="#361454" stroke="#361454"></path><path d="M745 435L761 306L587 284Z" fill="#541882" stroke="#541882"></path><path d="M461 600L589 600L580 428Z" fill="#1c0c29" stroke="#1c0c29"></path><path d="M443 147L287 304L461 312Z" fill="#8515cc" stroke="#8515cc"></path><path d="M433 458L461 600L580 428Z" fill="#541882" stroke="#541882"></path><path d="M313 600L461 600L433 458Z" fill="#7418b3" stroke="#7418b3"></path><path d="M287 304L293 448L433 458Z" fill="#541882" stroke="#541882"></path><path d="M761 306L766 170L587 284Z" fill="#970ee5" stroke="#970ee5"></path><path d="M443 147L289 146L287 304Z" fill="#29103e" stroke="#29103e"></path><path d="M293 448L313 600L433 458Z" fill="#970ee5" stroke="#970ee5"></path><path d="M589 600L770 600L745 435Z" fill="#64199a" stroke="#64199a"></path><path d="M900 470L900 278L761 306Z" fill="#361454" stroke="#361454"></path><path d="M761 306L900 278L766 170Z" fill="#0f0016" stroke="#0f0016"></path><path d="M579 155L588 0L443 147Z" fill="#361454" stroke="#361454"></path><path d="M443 147L304 0L289 146Z" fill="#0f0016" stroke="#0f0016"></path><path d="M749 0L588 0L579 155Z" fill="#7418b3" stroke="#7418b3"></path><path d="M588 0L430 0L443 147Z" fill="#45166b" stroke="#45166b"></path><path d="M900 470L761 306L745 435Z" fill="#64199a" stroke="#64199a"></path><path d="M766 170L749 0L579 155Z" fill="#0f0016" stroke="#0f0016"></path><path d="M289 146L162 280L287 304Z" fill="#361454" stroke="#361454"></path><path d="M287 304L141 434L293 448Z" fill="#1c0c29" stroke="#1c0c29"></path><path d="M293 448L136 600L313 600Z" fill="#0f0016" stroke="#0f0016"></path><path d="M770 600L900 470L745 435Z" fill="#541882" stroke="#541882"></path><path d="M162 280L141 434L287 304Z" fill="#8515cc" stroke="#8515cc"></path><path d="M900 145L749 0L766 170Z" fill="#8515cc" stroke="#8515cc"></path><path d="M900 278L900 145L766 170Z" fill="#aa00ff" stroke="#aa00ff"></path><path d="M289 146L140 133L162 280Z" fill="#45166b" stroke="#45166b"></path><path d="M430 0L304 0L443 147Z" fill="#8515cc" stroke="#8515cc"></path><path d="M770 600L900 600L900 470Z" fill="#45166b" stroke="#45166b"></path><path d="M149 0L140 133L289 146Z" fill="#970ee5" stroke="#970ee5"></path><path d="M162 280L0 318L141 434Z" fill="#361454" stroke="#361454"></path><path d="M0 435L136 600L141 434Z" fill="#7418b3" stroke="#7418b3"></path><path d="M141 434L136 600L293 448Z" fill="#361454" stroke="#361454"></path><path d="M900 145L900 0L749 0Z" fill="#29103e" stroke="#29103e"></path><path d="M304 0L149 0L289 146Z" fill="#541882" stroke="#541882"></path><path d="M0 171L162 280L140 133Z" fill="#541882" stroke="#541882"></path><path d="M0 171L0 318L162 280Z" fill="#29103e" stroke="#29103e"></path><path d="M0 318L0 435L141 434Z" fill="#45166b" stroke="#45166b"></path><path d="M0 0L0 171L140 133Z" fill="#970ee5" stroke="#970ee5"></path><path d="M0 435L0 600L136 600Z" fill="#aa00ff" stroke="#aa00ff"></path><path d="M149 0L0 0L140 133Z" fill="#361454" stroke="#361454"></path></g></svg>