<svg id="visual" viewBox="0 0 960 540" width="960" height="540" xmlns="http://www.w3.org/2000/svg" xmlns:xlink="http://www.w3.org/1999/xlink" version="1.1"><path d="M873 540L874.5 536.2C876 532.3 879 524.7 877.3 516.8C875.7 509 869.3 501 879 493.2C888.7 485.3 914.3 477.7 924 469.8C933.7 462 927.3 454 924.2 446.2C921 438.3 921 430.7 921 422.8C921 415 921 407 914.5 399.2C908 391.3 895 383.7 887 375.8C879 368 876 360 880.8 352.2C885.7 344.3 898.3 336.7 907.8 328.8C917.3 321 923.7 313 931.7 305.2C939.7 297.3 949.3 289.7 946.2 281.8C943 274 927 266 919 258.2C911 250.3 911 242.7 911 234.8C911 227 911 219 907.8 211.2C904.7 203.3 898.3 195.7 896.7 187.8C895 180 898 172 906 164.2C914 156.3 927 148.7 936.7 140.8C946.3 133 952.7 125 954.2 117.2C955.7 109.3 952.3 101.7 939.5 93.8C926.7 86 904.3 78 896.3 70.2C888.3 62.3 894.7 54.7 899.5 46.8C904.3 39 907.7 31 917.3 23.2C927 15.3 943 7.7 951 3.8L959 0L960 0L960 3.8C960 7.7 960 15.3 960 23.2C960 31 960 39 960 46.8C960 54.7 960 62.3 960 70.2C960 78 960 86 960 93.8C960 101.7 960 109.3 960 117.2C960 125 960 133 960 140.8C960 148.7 960 156.3 960 164.2C960 172 960 180 960 187.8C960 195.7 960 203.3 960 211.2C960 219 960 227 960 234.8C960 242.7 960 250.3 960 258.2C960 266 960 274 960 281.8C960 289.7 960 297.3 960 305.2C960 313 960 321 960 328.8C960 336.7 960 344.3 960 352.2C960 360 960 368 960 375.8C960 383.7 960 391.3 960 399.2C960 407 960 415 960 422.8C960 430.7 960 438.3 960 446.2C960 454 960 462 960 469.8C960 477.7 960 485.3 960 493.2C960 501 960 509 960 516.8C960 524.7 960 532.3 960 536.2L960 540Z" fill="#ca6fff"></path><path d="M834 540L837.2 536.2C840.3 532.3 846.7 524.7 843.5 516.8C840.3 509 827.7 501 815 493.2C802.3 485.3 789.7 477.7 781.7 469.8C773.7 462 770.3 454 746.3 446.2C722.3 438.3 677.7 430.7 669.7 422.8C661.7 415 690.3 407 695 399.2C699.7 391.3 680.3 383.7 688.3 375.8C696.3 368 731.7 360 731.7 352.2C731.7 344.3 696.3 336.7 718.7 328.8C741 321 821 313 824.3 305.2C827.7 297.3 754.3 289.7 751.2 281.8C748 274 815 266 831 258.2C847 250.3 812 242.7 808.8 234.8C805.7 227 834.3 219 827.8 211.2C821.3 203.3 779.7 195.7 734.8 187.8C690 180 642 172 643.7 164.2C645.3 156.3 696.7 148.7 690.3 140.8C684 133 620 125 620 117.2C620 109.3 684 101.7 719.2 93.8C754.3 86 760.7 78 776.7 70.2C792.7 62.3 818.3 54.7 760.7 46.8C703 39 562 31 522 23.2C482 15.3 543 7.7 573.5 3.8L604 0L960 0L952 3.8C944 7.7 928 15.3 918.3 23.2C908.7 31 905.3 39 900.5 46.8C895.7 54.7 889.3 62.3 897.3 70.2C905.3 78 927.7 86 940.5 93.8C953.3 101.7 956.7 109.3 955.2 117.2C953.7 125 947.3 133 937.7 140.8C928 148.7 915 156.3 907 164.2C899 172 896 180 897.7 187.8C899.3 195.7 905.7 203.3 908.8 211.2C912 219 912 227 912 234.8C912 242.7 912 250.3 920 258.2C928 266 944 274 947.2 281.8C950.3 289.7 940.7 297.3 932.7 305.2C924.7 313 918.3 321 908.8 328.8C899.3 336.7 886.7 344.3 881.8 352.2C877 360 880 368 888 375.8C896 383.7 909 391.3 915.5 399.2C922 407 922 415 922 422.8C922 430.7 922 438.3 925.2 446.2C928.3 454 934.7 462 925 469.8C915.3 477.7 889.7 485.3 880 493.2C870.3 501 876.7 509 878.3 516.8C880 524.7 877 532.3 875.5 536.2L874 540Z" fill="#c562ff"></path><path d="M825 540L817 536.2C809 532.3 793 524.7 791.3 516.8C789.7 509 802.3 501 787.8 493.2C773.3 485.3 731.7 477.7 712.5 469.8C693.3 462 696.7 454 677.5 446.2C658.3 438.3 616.7 430.7 610.2 422.8C603.7 415 632.3 407 643.5 399.2C654.7 391.3 648.3 383.7 648.3 375.8C648.3 368 654.7 360 637.2 352.2C619.7 344.3 578.3 336.7 613.7 328.8C649 321 761 313 778.5 305.2C796 297.3 719 289.7 706.2 281.8C693.3 274 744.7 266 751.2 258.2C757.7 250.3 719.3 242.7 724.2 234.8C729 227 777 219 778.5 211.2C780 203.3 735 195.7 687 187.8C639 180 588 172 578.5 164.2C569 156.3 601 148.7 594.5 140.8C588 133 543 125 547.7 117.2C552.3 109.3 606.7 101.7 643.5 93.8C680.3 86 699.7 78 717.3 70.2C735 62.3 751 54.7 683.8 46.8C616.7 39 466.3 31 423.2 23.2C380 15.3 444 7.7 476 3.8L508 0L605 0L574.5 3.8C544 7.7 483 15.3 523 23.2C563 31 704 39 761.7 46.8C819.3 54.7 793.7 62.3 777.7 70.2C761.7 78 755.3 86 720.2 93.8C685 101.7 621 109.3 621 117.2C621 125 685 133 691.3 140.8C697.7 148.7 646.3 156.3 644.7 164.2C643 172 691 180 735.8 187.8C780.7 195.7 822.3 203.3 828.8 211.2C835.3 219 806.7 227 809.8 234.8C813 242.7 848 250.3 832 258.2C816 266 749 274 752.2 281.8C755.3 289.7 828.7 297.3 825.3 305.2C822 313 742 321 719.7 328.8C697.3 336.7 732.7 344.3 732.7 352.2C732.7 360 697.3 368 689.3 375.8C681.3 383.7 700.7 391.3 696 399.2C691.3 407 662.7 415 670.7 422.8C678.7 430.7 723.3 438.3 747.3 446.2C771.3 454 774.7 462 782.7 469.8C790.7 477.7 803.3 485.3 816 493.2C828.7 501 841.3 509 844.5 516.8C847.7 524.7 841.3 532.3 838.2 536.2L835 540Z" fill="#bf54ff"></path><path d="M767 540L762.2 536.2C757.3 532.3 747.7 524.7 749.3 516.8C751 509 764 501 744.8 493.2C725.7 485.3 674.3 477.7 655 469.8C635.7 462 648.3 454 627.5 446.2C606.7 438.3 552.3 430.7 546 422.8C539.7 415 581.3 407 599 399.2C616.7 391.3 610.3 383.7 605.5 375.8C600.7 368 597.3 360 586.2 352.2C575 344.3 556 336.7 602.5 328.8C649 321 761 313 778.5 305.2C796 297.3 719 289.7 698.2 281.8C677.3 274 712.7 266 707.8 258.2C703 250.3 658 242.7 669.2 234.8C680.3 227 747.7 219 757.3 211.2C767 203.3 719 195.7 659.8 187.8C600.7 180 530.3 172 511.2 164.2C492 156.3 524 148.7 522.3 140.8C520.7 133 485.3 125 498.2 117.2C511 109.3 572 101.7 610.5 93.8C649 86 665 78 673 70.2C681 62.3 681 54.7 612.2 46.8C543.3 39 405.7 31 373.7 23.2C341.7 15.3 415.3 7.7 452.2 3.8L489 0L509 0L477 3.8C445 7.7 381 15.3 424.2 23.2C467.3 31 617.7 39 684.8 46.8C752 54.7 736 62.3 718.3 70.2C700.7 78 681.3 86 644.5 93.8C607.7 101.7 553.3 109.3 548.7 117.2C544 125 589 133 595.5 140.8C602 148.7 570 156.3 579.5 164.2C589 172 640 180 688 187.8C736 195.7 781 203.3 779.5 211.2C778 219 730 227 725.2 234.8C720.3 242.7 758.7 250.3 752.2 258.2C745.7 266 694.3 274 707.2 281.8C720 289.7 797 297.3 779.5 305.2C762 313 650 321 614.7 328.8C579.3 336.7 620.7 344.3 638.2 352.2C655.7 360 649.3 368 649.3 375.8C649.3 383.7 655.7 391.3 644.5 399.2C633.3 407 604.7 415 611.2 422.8C617.7 430.7 659.3 438.3 678.5 446.2C697.7 454 694.3 462 713.5 469.8C732.7 477.7 774.3 485.3 788.8 493.2C803.3 501 790.7 509 792.3 516.8C794 524.7 810 532.3 818 536.2L826 540Z" fill="#ba45ff"></path><path d="M738 540L728.5 536.2C719 532.3 700 524.7 701.7 516.8C703.3 509 725.7 501 704.8 493.2C684 485.3 620 477.7 594.3 469.8C568.7 462 581.3 454 558.8 446.2C536.3 438.3 478.7 430.7 472.3 422.8C466 415 511 407 539.8 399.2C568.7 391.3 581.3 383.7 573.3 375.8C565.3 368 536.7 360 527.2 352.2C517.7 344.3 527.3 336.7 586.5 328.8C645.7 321 754.3 313 762.3 305.2C770.3 297.3 677.7 289.7 653.7 281.8C629.7 274 674.3 266 667.8 258.2C661.3 250.3 603.7 242.7 606.8 234.8C610 227 674 219 686.8 211.2C699.7 203.3 661.3 195.7 611.8 187.8C562.3 180 501.7 172 488.8 164.2C476 156.3 511 148.7 498.2 140.8C485.3 133 424.7 125 424.7 117.2C424.7 109.3 485.3 101.7 530.2 93.8C575 86 604 78 623.2 70.2C642.3 62.3 651.7 54.7 590.8 46.8C530 39 399 31 362.3 23.2C325.7 15.3 383.3 7.7 412.2 3.8L441 0L490 0L453.2 3.8C416.3 7.7 342.7 15.3 374.7 23.2C406.7 31 544.3 39 613.2 46.8C682 54.7 682 62.3 674 70.2C666 78 650 86 611.5 93.8C573 101.7 512 109.3 499.2 117.2C486.3 125 521.7 133 523.3 140.8C525 148.7 493 156.3 512.2 164.2C531.3 172 601.7 180 660.8 187.8C720 195.7 768 203.3 758.3 211.2C748.7 219 681.3 227 670.2 234.8C659 242.7 704 250.3 708.8 258.2C713.7 266 678.3 274 699.2 281.8C720 289.7 797 297.3 779.5 305.2C762 313 650 321 603.5 328.8C557 336.7 576 344.3 587.2 352.2C598.3 360 601.7 368 606.5 375.8C611.3 383.7 617.7 391.3 600 399.2C582.3 407 540.7 415 547 422.8C553.3 430.7 607.7 438.3 628.5 446.2C649.3 454 636.7 462 656 469.8C675.3 477.7 726.7 485.3 745.8 493.2C765 501 752 509 750.3 516.8C748.7 524.7 758.3 532.3 763.2 536.2L768 540Z" fill="#b433ff"></path><path d="M431 540L442.2 536.2C453.3 532.3 475.7 524.7 480.5 516.8C485.3 509 472.7 501 459.8 493.2C447 485.3 434 477.7 421.2 469.8C408.3 462 395.7 454 363.7 446.2C331.7 438.3 280.3 430.7 307.5 422.8C334.7 415 440.3 407 464.3 399.2C488.3 391.3 430.7 383.7 408.3 375.8C386 368 399 360 407 352.2C415 344.3 418 336.7 434 328.8C450 321 479 313 504.7 305.2C530.3 297.3 552.7 289.7 539.8 281.8C527 274 479 266 450.2 258.2C421.3 250.3 411.7 242.7 419.7 234.8C427.7 227 453.3 219 451.8 211.2C450.3 203.3 421.7 195.7 394.5 187.8C367.3 180 341.7 172 328.8 164.2C316 156.3 316 148.7 316 140.8C316 133 316 125 322.3 117.2C328.7 109.3 341.3 101.7 366.8 93.8C392.3 86 430.7 78 429.2 70.2C427.7 62.3 386.3 54.7 351.2 46.8C316 39 287 31 282.2 23.2C277.3 15.3 296.7 7.7 306.3 3.8L316 0L442 0L413.2 3.8C384.3 7.7 326.7 15.3 363.3 23.2C400 31 531 39 591.8 46.8C652.7 54.7 643.3 62.3 624.2 70.2C605 78 576 86 531.2 93.8C486.3 101.7 425.7 109.3 425.7 117.2C425.7 125 486.3 133 499.2 140.8C512 148.7 477 156.3 489.8 164.2C502.7 172 563.3 180 612.8 187.8C662.3 195.7 700.7 203.3 687.8 211.2C675 219 611 227 607.8 234.8C604.7 242.7 662.3 250.3 668.8 258.2C675.3 266 630.7 274 654.7 281.8C678.7 289.7 771.3 297.3 763.3 305.2C755.3 313 646.7 321 587.5 328.8C528.3 336.7 518.7 344.3 528.2 352.2C537.7 360 566.3 368 574.3 375.8C582.3 383.7 569.7 391.3 540.8 399.2C512 407 467 415 473.3 422.8C479.7 430.7 537.3 438.3 559.8 446.2C582.3 454 569.7 462 595.3 469.8C621 477.7 685 485.3 705.8 493.2C726.7 501 704.3 509 702.7 516.8C701 524.7 720 532.3 729.5 536.2L739 540Z" fill="#ad1aff"></path><path d="M306 540L330 536.2C354 532.3 402 524.7 419.7 516.8C437.3 509 424.7 501 413.5 493.2C402.3 485.3 392.7 477.7 383 469.8C373.3 462 363.7 454 328.5 446.2C293.3 438.3 232.7 430.7 255.2 422.8C277.7 415 383.3 407 399.3 399.2C415.3 391.3 341.7 383.7 312.8 375.8C284 368 300 360 306.3 352.2C312.7 344.3 309.3 336.7 334.8 328.8C360.3 321 414.7 313 459.5 305.2C504.3 297.3 539.7 289.7 517.3 281.8C495 274 415 266 376.7 258.2C338.3 250.3 341.7 242.7 349.7 234.8C357.7 227 370.3 219 354.3 211.2C338.3 203.3 293.7 195.7 264.8 187.8C236 180 223 172 229.3 164.2C235.7 156.3 261.3 148.7 274.2 140.8C287 133 287 125 293.3 117.2C299.7 109.3 312.3 101.7 341.2 93.8C370 86 415 78 408.7 70.2C402.3 62.3 344.7 54.7 309.5 46.8C274.3 39 261.7 31 264.8 23.2C268 15.3 287 7.7 296.5 3.8L306 0L317 0L307.3 3.8C297.7 7.7 278.3 15.3 283.2 23.2C288 31 317 39 352.2 46.8C387.3 54.7 428.7 62.3 430.2 70.2C431.7 78 393.3 86 367.8 93.8C342.3 101.7 329.7 109.3 323.3 117.2C317 125 317 133 317 140.8C317 148.7 317 156.3 329.8 164.2C342.7 172 368.3 180 395.5 187.8C422.7 195.7 451.3 203.3 452.8 211.2C454.3 219 428.7 227 420.7 234.8C412.7 242.7 422.3 250.3 451.2 258.2C480 266 528 274 540.8 281.8C553.7 289.7 531.3 297.3 505.7 305.2C480 313 451 321 435 328.8C419 336.7 416 344.3 408 352.2C400 360 387 368 409.3 375.8C431.7 383.7 489.3 391.3 465.3 399.2C441.3 407 335.7 415 308.5 422.8C281.3 430.7 332.7 438.3 364.7 446.2C396.7 454 409.3 462 422.2 469.8C435 477.7 448 485.3 460.8 493.2C473.7 501 486.3 509 481.5 516.8C476.7 524.7 454.3 532.3 443.2 536.2L432 540Z" fill="#a600f9"></path><path d="M249 540L269.7 536.2C290.3 532.3 331.7 524.7 354 516.8C376.3 509 379.7 501 378.2 493.2C376.7 485.3 370.3 477.7 365.5 469.8C360.7 462 357.3 454 320.5 446.2C283.7 438.3 213.3 430.7 235.8 422.8C258.3 415 373.7 407 392.8 399.2C412 391.3 335 383.7 303 375.8C271 368 284 360 279.2 352.2C274.3 344.3 251.7 336.7 274 328.8C296.3 321 363.7 313 415 305.2C466.3 297.3 501.7 289.7 477.7 281.8C453.7 274 370.3 266 338.3 258.2C306.3 250.3 325.7 242.7 336.8 234.8C348 227 351 219 325.3 211.2C299.7 203.3 245.3 195.7 208.5 187.8C171.7 180 152.3 172 158.7 164.2C165 156.3 197 148.7 216.3 140.8C235.7 133 242.3 125 255.2 117.2C268 109.3 287 101.7 309.3 93.8C331.7 86 357.3 78 354.2 70.2C351 62.3 319 54.7 285.3 46.8C251.7 39 216.3 31 208.3 23.2C200.3 15.3 219.7 7.7 229.3 3.8L239 0L307 0L297.5 3.8C288 7.7 269 15.3 265.8 23.2C262.7 31 275.3 39 310.5 46.8C345.7 54.7 403.3 62.3 409.7 70.2C416 78 371 86 342.2 93.8C313.3 101.7 300.7 109.3 294.3 117.2C288 125 288 133 275.2 140.8C262.3 148.7 236.7 156.3 230.3 164.2C224 172 237 180 265.8 187.8C294.7 195.7 339.3 203.3 355.3 211.2C371.3 219 358.7 227 350.7 234.8C342.7 242.7 339.3 250.3 377.7 258.2C416 266 496 274 518.3 281.8C540.7 289.7 505.3 297.3 460.5 305.2C415.7 313 361.3 321 335.8 328.8C310.3 336.7 313.7 344.3 307.3 352.2C301 360 285 368 313.8 375.8C342.7 383.7 416.3 391.3 400.3 399.2C384.3 407 278.7 415 256.2 422.8C233.7 430.7 294.3 438.3 329.5 446.2C364.7 454 374.3 462 384 469.8C393.7 477.7 403.3 485.3 414.5 493.2C425.7 501 438.3 509 420.7 516.8C403 524.7 355 532.3 331 536.2L307 540Z" fill="#9e00ec"></path><path d="M153 540L177 536.2C201 532.3 249 524.7 277.7 516.8C306.3 509 315.7 501 323.7 493.2C331.7 485.3 338.3 477.7 335.2 469.8C332 462 319 454 283.7 446.2C248.3 438.3 190.7 430.7 206.7 422.8C222.7 415 312.3 407 331.7 399.2C351 391.3 300 383.7 271.2 375.8C242.3 368 235.7 360 222.8 352.2C210 344.3 191 336.7 211.8 328.8C232.7 321 293.3 313 336.5 305.2C379.7 297.3 405.3 289.7 376.5 281.8C347.7 274 264.3 266 238.7 258.2C213 250.3 245 242.7 272.3 234.8C299.7 227 322.3 219 296.8 211.2C271.3 203.3 197.7 195.7 162.3 187.8C127 180 130 172 128.3 164.2C126.7 156.3 120.3 148.7 139.7 140.8C159 133 204 125 221.7 117.2C239.3 109.3 229.7 101.7 245.7 93.8C261.7 86 303.3 78 311.3 70.2C319.3 62.3 293.7 54.7 266.3 46.8C239 39 210 31 195.5 23.2C181 15.3 181 7.7 181 3.8L181 0L240 0L230.3 3.8C220.7 7.7 201.3 15.3 209.3 23.2C217.3 31 252.7 39 286.3 46.8C320 54.7 352 62.3 355.2 70.2C358.3 78 332.7 86 310.3 93.8C288 101.7 269 109.3 256.2 117.2C243.3 125 236.7 133 217.3 140.8C198 148.7 166 156.3 159.7 164.2C153.3 172 172.7 180 209.5 187.8C246.3 195.7 300.7 203.3 326.3 211.2C352 219 349 227 337.8 234.8C326.7 242.7 307.3 250.3 339.3 258.2C371.3 266 454.7 274 478.7 281.8C502.7 289.7 467.3 297.3 416 305.2C364.7 313 297.3 321 275 328.8C252.7 336.7 275.3 344.3 280.2 352.2C285 360 272 368 304 375.8C336 383.7 413 391.3 393.8 399.2C374.7 407 259.3 415 236.8 422.8C214.3 430.7 284.7 438.3 321.5 446.2C358.3 454 361.7 462 366.5 469.8C371.3 477.7 377.7 485.3 379.2 493.2C380.7 501 377.3 509 355 516.8C332.7 524.7 291.3 532.3 270.7 536.2L250 540Z" fill="#9600df"></path><path d="M95 540L123.8 536.2C152.7 532.3 210.3 524.7 244 516.8C277.7 509 287.3 501 296.8 493.2C306.3 485.3 315.7 477.7 310.8 469.8C306 462 287 454 243.8 446.2C200.7 438.3 133.3 430.7 149.3 422.8C165.3 415 264.7 407 283.8 399.2C303 391.3 242 383.7 219.5 375.8C197 368 213 360 209.8 352.2C206.7 344.3 184.3 336.7 203.7 328.8C223 321 284 313 311.2 305.2C338.3 297.3 331.7 289.7 296.3 281.8C261 274 197 266 185.8 258.2C174.7 250.3 216.3 242.7 237.2 234.8C258 227 258 219 232.5 211.2C207 203.3 156 195.7 130.5 187.8C105 180 105 172 103.3 164.2C101.7 156.3 98.3 148.7 122.3 140.8C146.3 133 197.7 125 213.7 117.2C229.7 109.3 210.3 101.7 218.3 93.8C226.3 86 261.7 78 258.5 70.2C255.3 62.3 213.7 54.7 194.3 46.8C175 39 178 31 171.5 23.2C165 15.3 149 7.7 141 3.8L133 0L182 0L182 3.8C182 7.7 182 15.3 196.5 23.2C211 31 240 39 267.3 46.8C294.7 54.7 320.3 62.3 312.3 70.2C304.3 78 262.7 86 246.7 93.8C230.7 101.7 240.3 109.3 222.7 117.2C205 125 160 133 140.7 140.8C121.3 148.7 127.7 156.3 129.3 164.2C131 172 128 180 163.3 187.8C198.7 195.7 272.3 203.3 297.8 211.2C323.3 219 300.7 227 273.3 234.8C246 242.7 214 250.3 239.7 258.2C265.3 266 348.7 274 377.5 281.8C406.3 289.7 380.7 297.3 337.5 305.2C294.3 313 233.7 321 212.8 328.8C192 336.7 211 344.3 223.8 352.2C236.7 360 243.3 368 272.2 375.8C301 383.7 352 391.3 332.7 399.2C313.3 407 223.7 415 207.7 422.8C191.7 430.7 249.3 438.3 284.7 446.2C320 454 333 462 336.2 469.8C339.3 477.7 332.7 485.3 324.7 493.2C316.7 501 307.3 509 278.7 516.8C250 524.7 202 532.3 178 536.2L154 540Z" fill="#8e00d3"></path><path d="M9 540L23.3 536.2C37.7 532.3 66.3 524.7 87 516.8C107.7 509 120.3 501 134.7 493.2C149 485.3 165 477.7 168.3 469.8C171.7 462 162.3 454 141.7 446.2C121 438.3 89 430.7 92.2 422.8C95.3 415 133.7 407 127.2 399.2C120.7 391.3 69.3 383.7 50.2 375.8C31 368 44 360 68 352.2C92 344.3 127 336.7 133.3 328.8C139.7 321 117.3 313 106.2 305.2C95 297.3 95 289.7 85.3 281.8C75.7 274 56.3 266 61.2 258.2C66 250.3 95 242.7 106.3 234.8C117.7 227 111.3 219 98.5 211.2C85.7 203.3 66.3 195.7 55 187.8C43.7 180 40.3 172 37.2 164.2C34 156.3 31 148.7 48.7 140.8C66.3 133 104.7 125 104.7 117.2C104.7 109.3 66.3 101.7 61.5 93.8C56.7 86 85.3 78 98.2 70.2C111 62.3 108 54.7 108 46.8C108 39 111 31 115.7 23.2C120.3 15.3 126.7 7.7 129.8 3.8L133 0L134 0L142 3.8C150 7.7 166 15.3 172.5 23.2C179 31 176 39 195.3 46.8C214.7 54.7 256.3 62.3 259.5 70.2C262.7 78 227.3 86 219.3 93.8C211.3 101.7 230.7 109.3 214.7 117.2C198.7 125 147.3 133 123.3 140.8C99.3 148.7 102.7 156.3 104.3 164.2C106 172 106 180 131.5 187.8C157 195.7 208 203.3 233.5 211.2C259 219 259 227 238.2 234.8C217.3 242.7 175.7 250.3 186.8 258.2C198 266 262 274 297.3 281.8C332.7 289.7 339.3 297.3 312.2 305.2C285 313 224 321 204.7 328.8C185.3 336.7 207.7 344.3 210.8 352.2C214 360 198 368 220.5 375.8C243 383.7 304 391.3 284.8 399.2C265.7 407 166.3 415 150.3 422.8C134.3 430.7 201.7 438.3 244.8 446.2C288 454 307 462 311.8 469.8C316.7 477.7 307.3 485.3 297.8 493.2C288.3 501 278.7 509 245 516.8C211.3 524.7 153.7 532.3 124.8 536.2L96 540Z" fill="#8600c6"></path><path d="M0 540L0 536.2C0 532.3 0 524.7 0 516.8C0 509 0 501 0 493.2C0 485.3 0 477.7 0 469.8C0 462 0 454 0 446.2C0 438.3 0 430.7 0 422.8C0 415 0 407 0 399.2C0 391.3 0 383.7 0 375.8C0 368 0 360 0 352.2C0 344.3 0 336.7 0 328.8C0 321 0 313 0 305.2C0 297.3 0 289.7 0 281.8C0 274 0 266 0 258.2C0 250.3 0 242.7 0 234.8C0 227 0 219 0 211.2C0 203.3 0 195.7 0 187.8C0 180 0 172 0 164.2C0 156.3 0 148.7 0 140.8C0 133 0 125 0 117.2C0 109.3 0 101.7 0 93.8C0 86 0 78 0 70.2C0 62.3 0 54.7 0 46.8C0 39 0 31 0 23.2C0 15.3 0 7.7 0 3.8L0 0L134 0L130.8 3.8C127.7 7.7 121.3 15.3 116.7 23.2C112 31 109 39 109 46.8C109 54.7 112 62.3 99.2 70.2C86.3 78 57.7 86 62.5 93.8C67.3 101.7 105.7 109.3 105.7 117.2C105.7 125 67.3 133 49.7 140.8C32 148.7 35 156.3 38.2 164.2C41.3 172 44.7 180 56 187.8C67.3 195.7 86.7 203.3 99.5 211.2C112.3 219 118.7 227 107.3 234.8C96 242.7 67 250.3 62.2 258.2C57.3 266 76.7 274 86.3 281.8C96 289.7 96 297.3 107.2 305.2C118.3 313 140.7 321 134.3 328.8C128 336.7 93 344.3 69 352.2C45 360 32 368 51.2 375.8C70.3 383.7 121.7 391.3 128.2 399.2C134.7 407 96.3 415 93.2 422.8C90 430.7 122 438.3 142.7 446.2C163.3 454 172.7 462 169.3 469.8C166 477.7 150 485.3 135.7 493.2C121.3 501 108.7 509 88 516.8C67.3 524.7 38.7 532.3 24.3 536.2L10 540Z" fill="#7e00ba"></path></svg>