<svg id="visual" viewBox="0 0 900 600" width="900" height="600" xmlns="http://www.w3.org/2000/svg" xmlns:xlink="http://www.w3.org/1999/xlink" version="1.1"><g transform="translate(459.66379314508094 299.0107404300373)"><path d="M76.1 -146.2C102.3 -116.8 129.5 -103.6 166.8 -82C204.2 -60.3 251.6 -30.2 248 -2.1C244.4 26 189.7 52 153.1 74.9C116.6 97.9 98 117.8 75.5 145.5C53 173.1 26.5 208.6 -11.4 228.3C-49.3 248.1 -98.7 252.2 -120.9 224.4C-143.1 196.6 -138.2 136.8 -163.6 94.1C-188.9 51.3 -244.5 25.7 -261.5 -9.8C-278.5 -45.3 -257 -90.7 -228.2 -127.3C-199.4 -164 -163.2 -192 -123.9 -213.8C-84.7 -235.6 -42.3 -251.3 -8.7 -236.3C25 -221.3 50 -175.6 76.1 -146.2" fill="#AA00FF"></path></g></svg>