<svg id="visual" viewBox="0 0 900 600" width="900" height="600" xmlns="http://www.w3.org/2000/svg" xmlns:xlink="http://www.w3.org/1999/xlink" version="1.1"><rect x="0" y="0" width="900" height="600" fill="#000000"></rect><g transform="translate(427.62750609461114 323.26339650477655)"><path d="M133.8 -175.7C179.5 -151 226.7 -120 246.8 -76C266.9 -31.9 260 25.1 238.9 73.8C217.8 122.5 182.7 162.8 140.5 174.1C98.4 185.4 49.2 167.7 -2.4 170.9C-53.9 174.2 -107.8 198.3 -144.4 185.2C-181 172.1 -200.3 121.7 -208.8 73.2C-217.2 24.6 -214.6 -22.1 -207.4 -74.5C-200.2 -126.8 -188.3 -184.8 -152.9 -212.8C-117.6 -240.8 -58.8 -238.9 -7.3 -228.8C44.1 -218.7 88.2 -200.4 133.8 -175.7" fill="#AA00FF"></path></g></svg>